<?xml version="1.0" encoding="us-ascii" standalone="no"?><svg xmlns="http://www.w3.org/2000/svg" xmlns:xlink="http://www.w3.org/1999/xlink" contentStyleType="text/css" height="517px" preserveAspectRatio="none" style="width:434px;height:517px;background:#FFFFFF;" version="1.1" viewBox="0 0 434 517" width="434px" zoomAndPan="magnify"><defs/><g><line style="stroke:#181818;stroke-width:0.5;stroke-dasharray:5.0,5.0;" x1="21" x2="21" y1="53.2969" y2="465.0234"/><line style="stroke:#181818;stroke-width:0.5;stroke-dasharray:5.0,5.0;" x1="248" x2="248" y1="53.2969" y2="465.0234"/><line style="stroke:#181818;stroke-width:0.5;stroke-dasharray:5.0,5.0;" x1="343" x2="343" y1="53.2969" y2="465.0234"/><text fill="#000000" font-family="sans-serif" font-size="14" lengthAdjust="spacing" textLength="26" x="5" y="49.9951">PLC</text><ellipse cx="21" cy="21" fill="#E2E2F0" rx="12" ry="12" style="stroke:#181818;stroke-width:0.5;"/><polygon fill="#181818" points="17,9,23,4,21,9,23,14,17,9" style="stroke:#181818;stroke-width:1.0;"/><text fill="#000000" font-family="sans-serif" font-size="14" lengthAdjust="spacing" textLength="26" x="5" y="477.0186">PLC</text><ellipse cx="21" cy="496.3203" fill="#E2E2F0" rx="12" ry="12" style="stroke:#181818;stroke-width:0.5;"/><polygon fill="#181818" points="17,484.3203,23,479.3203,21,484.3203,23,489.3203,17,484.3203" style="stroke:#181818;stroke-width:1.0;"/><text fill="#000000" font-family="sans-serif" font-size="14" lengthAdjust="spacing" textLength="68" x="211" y="49.9951">Robotarm</text><ellipse cx="248" cy="21" fill="#E2E2F0" rx="12" ry="12" style="stroke:#181818;stroke-width:0.5;"/><line style="stroke:#181818;stroke-width:0.5;" x1="236" x2="260" y1="35" y2="35"/><text fill="#000000" font-family="sans-serif" font-size="14" lengthAdjust="spacing" textLength="68" x="211" y="477.0186">Robotarm</text><ellipse cx="248" cy="496.3203" fill="#E2E2F0" rx="12" ry="12" style="stroke:#181818;stroke-width:0.5;"/><line style="stroke:#181818;stroke-width:0.5;" x1="236" x2="260" y1="510.3203" y2="510.3203"/><rect fill="#E2E2F0" height="30.2969" style="stroke:#181818;stroke-width:0.5;" width="92" x="299" y="18"/><rect fill="#E2E2F0" height="30.2969" style="stroke:#181818;stroke-width:0.5;" width="92" x="295" y="22"/><text fill="#000000" font-family="sans-serif" font-size="14" lengthAdjust="spacing" textLength="78" x="302" y="41.9951">Parts Stock</text><rect fill="#E2E2F0" height="30.2969" style="stroke:#181818;stroke-width:0.5;" width="92" x="299" y="464.0234"/><rect fill="#E2E2F0" height="30.2969" style="stroke:#181818;stroke-width:0.5;" width="92" x="295" y="468.0234"/><text fill="#000000" font-family="sans-serif" font-size="14" lengthAdjust="spacing" textLength="78" x="302" y="488.0186">Parts Stock</text><polygon fill="#181818" points="331,80.4297,341,84.4297,331,88.4297,335,84.4297" style="stroke:#181818;stroke-width:1.0;"/><line style="stroke:#181818;stroke-width:1.0;" x1="21" x2="337" y1="84.4297" y2="84.4297"/><text fill="#000000" font-family="sans-serif" font-size="13" lengthAdjust="spacing" textLength="77" x="28" y="79.3638">Stock check</text><line style="stroke:#181818;stroke-width:1.0;" x1="343" x2="385" y1="113.5625" y2="113.5625"/><line style="stroke:#181818;stroke-width:1.0;" x1="385" x2="385" y1="113.5625" y2="126.5625"/><line style="stroke:#181818;stroke-width:1.0;" x1="344" x2="385" y1="126.5625" y2="126.5625"/><polygon fill="#181818" points="354,122.5625,344,126.5625,354,130.5625,350,126.5625" style="stroke:#181818;stroke-width:1.0;"/><text fill="#000000" font-family="sans-serif" font-size="13" lengthAdjust="spacing" textLength="77" x="350" y="108.4966">Stock check</text><polygon fill="#181818" points="32,151.6953,22,155.6953,32,159.6953,28,155.6953" style="stroke:#181818;stroke-width:1.0;"/><line style="stroke:#181818;stroke-width:1.0;" x1="26" x2="342" y1="155.6953" y2="155.6953"/><text fill="#000000" font-family="sans-serif" font-size="13" lengthAdjust="spacing" textLength="55" x="38" y="150.6294">Stock ok</text><polygon fill="#181818" points="236,180.8281,246,184.8281,236,188.8281,240,184.8281" style="stroke:#181818;stroke-width:1.0;"/><line style="stroke:#181818;stroke-width:1.0;" x1="21" x2="242" y1="184.8281" y2="184.8281"/><text fill="#000000" font-family="sans-serif" font-size="13" lengthAdjust="spacing" textLength="203" x="28" y="179.7622">Move gripper above Parts Stock</text><polygon fill="#181818" points="32,209.9609,22,213.9609,32,217.9609,28,213.9609" style="stroke:#181818;stroke-width:1.0;"/><line style="stroke:#181818;stroke-width:1.0;" x1="26" x2="247" y1="213.9609" y2="213.9609"/><text fill="#000000" font-family="sans-serif" font-size="13" lengthAdjust="spacing" textLength="102" x="38" y="208.895">Response move</text><polygon fill="#181818" points="236,239.0938,246,243.0938,236,247.0938,240,243.0938" style="stroke:#181818;stroke-width:1.0;"/><line style="stroke:#181818;stroke-width:1.0;" x1="21" x2="242" y1="243.0938" y2="243.0938"/><text fill="#000000" font-family="sans-serif" font-size="13" lengthAdjust="spacing" textLength="83" x="28" y="238.0278">Open gripper</text><polygon fill="#181818" points="32,268.2266,22,272.2266,32,276.2266,28,272.2266" style="stroke:#181818;stroke-width:1.0;"/><line style="stroke:#181818;stroke-width:1.0;" x1="26" x2="247" y1="272.2266" y2="272.2266"/><text fill="#000000" font-family="sans-serif" font-size="13" lengthAdjust="spacing" textLength="102" x="38" y="267.1606">Response move</text><polygon fill="#181818" points="236,297.3594,246,301.3594,236,305.3594,240,301.3594" style="stroke:#181818;stroke-width:1.0;"/><line style="stroke:#181818;stroke-width:1.0;" x1="21" x2="242" y1="301.3594" y2="301.3594"/><text fill="#000000" font-family="sans-serif" font-size="13" lengthAdjust="spacing" textLength="107" x="28" y="296.2935">Move above part</text><polygon fill="#181818" points="32,326.4922,22,330.4922,32,334.4922,28,330.4922" style="stroke:#181818;stroke-width:1.0;"/><line style="stroke:#181818;stroke-width:1.0;" x1="26" x2="247" y1="330.4922" y2="330.4922"/><text fill="#000000" font-family="sans-serif" font-size="13" lengthAdjust="spacing" textLength="102" x="38" y="325.4263">Response move</text><polygon fill="#181818" points="236,355.625,246,359.625,236,363.625,240,359.625" style="stroke:#181818;stroke-width:1.0;"/><line style="stroke:#181818;stroke-width:1.0;" x1="21" x2="242" y1="359.625" y2="359.625"/><text fill="#000000" font-family="sans-serif" font-size="13" lengthAdjust="spacing" textLength="84" x="28" y="354.5591">Close gripper</text><polygon fill="#181818" points="32,384.7578,22,388.7578,32,392.7578,28,388.7578" style="stroke:#181818;stroke-width:1.0;"/><line style="stroke:#181818;stroke-width:1.0;" x1="26" x2="247" y1="388.7578" y2="388.7578"/><text fill="#000000" font-family="sans-serif" font-size="13" lengthAdjust="spacing" textLength="102" x="38" y="383.6919">Response move</text><polygon fill="#181818" points="236,413.8906,246,417.8906,236,421.8906,240,417.8906" style="stroke:#181818;stroke-width:1.0;"/><line style="stroke:#181818;stroke-width:1.0;" x1="21" x2="242" y1="417.8906" y2="417.8906"/><text fill="#000000" font-family="sans-serif" font-size="13" lengthAdjust="spacing" textLength="154" x="28" y="412.8247">Move above Parts Stock</text><polygon fill="#181818" points="32,443.0234,22,447.0234,32,451.0234,28,447.0234" style="stroke:#181818;stroke-width:1.0;"/><line style="stroke:#181818;stroke-width:1.0;" x1="26" x2="247" y1="447.0234" y2="447.0234"/><text fill="#000000" font-family="sans-serif" font-size="13" lengthAdjust="spacing" textLength="102" x="38" y="441.9575">Response move</text><!--SRC=[fOyn3i8m34NtdCBgpWKOMBg2gCe9Kik2gcaSEHOIjyUX58K5LS9Jyl_tVmboLE40PRfZ2_Nu32cWewYZFXQfvu7Lorn5X0U770AXZXmpD9qNpN1HngbvjuWwPrMmEvGpx1SNy4OukQByD6nnDNXQUmnhwedl15SPKo81FvHRXNSbz6deAITx8C5iiU-QSwAurcnUUh4NPZBcvhqsSAP_QDj- -0G0]--></g></svg>