<?xml version="1.0" encoding="us-ascii" standalone="no"?><svg xmlns="http://www.w3.org/2000/svg" xmlns:xlink="http://www.w3.org/1999/xlink" contentStyleType="text/css" height="564px" preserveAspectRatio="none" style="width:541px;height:564px;background:#FFFFFF;" version="1.1" viewBox="0 0 541 564" width="541px" zoomAndPan="magnify"><defs/><g><rect fill="none" height="250.1953" style="stroke:#000000;stroke-width:1.5;" width="399" x="10" y="186.8281"/><line style="stroke:#181818;stroke-width:0.5;stroke-dasharray:5.0,5.0;" x1="36" x2="36" y1="53.2969" y2="512.2891"/><line style="stroke:#181818;stroke-width:0.5;stroke-dasharray:5.0,5.0;" x1="362" x2="362" y1="53.2969" y2="512.2891"/><line style="stroke:#181818;stroke-width:0.5;stroke-dasharray:5.0,5.0;" x1="472" x2="472" y1="53.2969" y2="512.2891"/><text fill="#000000" font-family="sans-serif" font-size="14" lengthAdjust="spacing" textLength="26" x="20" y="49.9951">PLC</text><ellipse cx="36" cy="21" fill="#E2E2F0" rx="12" ry="12" style="stroke:#181818;stroke-width:0.5;"/><polygon fill="#181818" points="32,9,38,4,36,9,38,14,32,9" style="stroke:#181818;stroke-width:1.0;"/><text fill="#000000" font-family="sans-serif" font-size="14" lengthAdjust="spacing" textLength="26" x="20" y="524.2842">PLC</text><ellipse cx="36" cy="543.5859" fill="#E2E2F0" rx="12" ry="12" style="stroke:#181818;stroke-width:0.5;"/><polygon fill="#181818" points="32,531.5859,38,526.5859,36,531.5859,38,536.5859,32,531.5859" style="stroke:#181818;stroke-width:1.0;"/><text fill="#000000" font-family="sans-serif" font-size="14" lengthAdjust="spacing" textLength="68" x="325" y="49.9951">Robotarm</text><ellipse cx="362" cy="21" fill="#E2E2F0" rx="12" ry="12" style="stroke:#181818;stroke-width:0.5;"/><line style="stroke:#181818;stroke-width:0.5;" x1="350" x2="374" y1="35" y2="35"/><text fill="#000000" font-family="sans-serif" font-size="14" lengthAdjust="spacing" textLength="68" x="325" y="524.2842">Robotarm</text><ellipse cx="362" cy="543.5859" fill="#E2E2F0" rx="12" ry="12" style="stroke:#181818;stroke-width:0.5;"/><line style="stroke:#181818;stroke-width:0.5;" x1="350" x2="374" y1="557.5859" y2="557.5859"/><rect fill="#E2E2F0" height="30.2969" style="stroke:#181818;stroke-width:0.5;" width="122" x="413" y="18"/><rect fill="#E2E2F0" height="30.2969" style="stroke:#181818;stroke-width:0.5;" width="122" x="409" y="22"/><text fill="#000000" font-family="sans-serif" font-size="14" lengthAdjust="spacing" textLength="108" x="416" y="41.9951">Assembly Table</text><rect fill="#E2E2F0" height="30.2969" style="stroke:#181818;stroke-width:0.5;" width="122" x="413" y="511.2891"/><rect fill="#E2E2F0" height="30.2969" style="stroke:#181818;stroke-width:0.5;" width="122" x="409" y="515.2891"/><text fill="#000000" font-family="sans-serif" font-size="14" lengthAdjust="spacing" textLength="108" x="416" y="535.2842">Assembly Table</text><polygon fill="#181818" points="350,80.4297,360,84.4297,350,88.4297,354,84.4297" style="stroke:#181818;stroke-width:1.0;"/><line style="stroke:#181818;stroke-width:1.0;" x1="36" x2="356" y1="84.4297" y2="84.4297"/><text fill="#000000" font-family="sans-serif" font-size="13" lengthAdjust="spacing" textLength="302" x="43" y="79.3638">Move gripper above Assembly Station vertically</text><polygon fill="#181818" points="47,109.5625,37,113.5625,47,117.5625,43,113.5625" style="stroke:#181818;stroke-width:1.0;"/><line style="stroke:#181818;stroke-width:1.0;" x1="41" x2="361" y1="113.5625" y2="113.5625"/><text fill="#000000" font-family="sans-serif" font-size="13" lengthAdjust="spacing" textLength="102" x="53" y="108.4966">Response move</text><polygon fill="#181818" points="350,138.6953,360,142.6953,350,146.6953,354,142.6953" style="stroke:#181818;stroke-width:1.0;"/><line style="stroke:#181818;stroke-width:1.0;" x1="36" x2="356" y1="142.6953" y2="142.6953"/><text fill="#000000" font-family="sans-serif" font-size="13" lengthAdjust="spacing" textLength="232" x="43" y="137.6294">Move gripper next to part on Station</text><polygon fill="#181818" points="47,167.8281,37,171.8281,47,175.8281,43,171.8281" style="stroke:#181818;stroke-width:1.0;"/><line style="stroke:#181818;stroke-width:1.0;" x1="41" x2="361" y1="171.8281" y2="171.8281"/><text fill="#000000" font-family="sans-serif" font-size="13" lengthAdjust="spacing" textLength="102" x="53" y="166.7622">Response move</text><path d="M10,186.8281 L87,186.8281 L87,193.9609 L77,203.9609 L10,203.9609 L10,186.8281 " fill="#EEEEEE" style="stroke:#000000;stroke-width:1.5;"/><rect fill="none" height="250.1953" style="stroke:#000000;stroke-width:1.5;" width="399" x="10" y="186.8281"/><text fill="#000000" font-family="sans-serif" font-size="13" font-weight="bold" lengthAdjust="spacing" textLength="32" x="25" y="199.895">loop</text><text fill="#000000" font-family="sans-serif" font-size="11" font-weight="bold" lengthAdjust="spacing" textLength="57" x="102" y="199.0386">[3 times]</text><polygon fill="#181818" points="350,221.0938,360,225.0938,350,229.0938,354,225.0938" style="stroke:#181818;stroke-width:1.0;"/><line style="stroke:#181818;stroke-width:1.0;" x1="36" x2="356" y1="225.0938" y2="225.0938"/><text fill="#000000" font-family="sans-serif" font-size="13" lengthAdjust="spacing" textLength="84" x="43" y="220.0278">Close gripper</text><polygon fill="#181818" points="47,250.2266,37,254.2266,47,258.2266,43,254.2266" style="stroke:#181818;stroke-width:1.0;"/><line style="stroke:#181818;stroke-width:1.0;" x1="41" x2="361" y1="254.2266" y2="254.2266"/><text fill="#000000" font-family="sans-serif" font-size="13" lengthAdjust="spacing" textLength="102" x="53" y="249.1606">Response move</text><polygon fill="#181818" points="350,279.3594,360,283.3594,350,287.3594,354,283.3594" style="stroke:#181818;stroke-width:1.0;"/><line style="stroke:#181818;stroke-width:1.0;" x1="36" x2="356" y1="283.3594" y2="283.3594"/><text fill="#000000" font-family="sans-serif" font-size="13" lengthAdjust="spacing" textLength="137" x="43" y="278.2935">Rotate +180 degrees</text><polygon fill="#181818" points="47,308.4922,37,312.4922,47,316.4922,43,312.4922" style="stroke:#181818;stroke-width:1.0;"/><line style="stroke:#181818;stroke-width:1.0;" x1="41" x2="361" y1="312.4922" y2="312.4922"/><text fill="#000000" font-family="sans-serif" font-size="13" lengthAdjust="spacing" textLength="102" x="53" y="307.4263">Response move</text><polygon fill="#181818" points="350,337.625,360,341.625,350,345.625,354,341.625" style="stroke:#181818;stroke-width:1.0;"/><line style="stroke:#181818;stroke-width:1.0;" x1="36" x2="356" y1="341.625" y2="341.625"/><text fill="#000000" font-family="sans-serif" font-size="13" lengthAdjust="spacing" textLength="83" x="43" y="336.5591">Open gripper</text><polygon fill="#181818" points="47,366.7578,37,370.7578,47,374.7578,43,370.7578" style="stroke:#181818;stroke-width:1.0;"/><line style="stroke:#181818;stroke-width:1.0;" x1="41" x2="361" y1="370.7578" y2="370.7578"/><text fill="#000000" font-family="sans-serif" font-size="13" lengthAdjust="spacing" textLength="102" x="53" y="365.6919">Response move</text><polygon fill="#181818" points="350,395.8906,360,399.8906,350,403.8906,354,399.8906" style="stroke:#181818;stroke-width:1.0;"/><line style="stroke:#181818;stroke-width:1.0;" x1="36" x2="356" y1="399.8906" y2="399.8906"/><text fill="#000000" font-family="sans-serif" font-size="13" lengthAdjust="spacing" textLength="131" x="43" y="394.8247">Rotate -180 degrees</text><polygon fill="#181818" points="47,425.0234,37,429.0234,47,433.0234,43,429.0234" style="stroke:#181818;stroke-width:1.0;"/><line style="stroke:#181818;stroke-width:1.0;" x1="41" x2="361" y1="429.0234" y2="429.0234"/><text fill="#000000" font-family="sans-serif" font-size="13" lengthAdjust="spacing" textLength="102" x="53" y="423.9575">Response move</text><polygon fill="#181818" points="350,461.1563,360,465.1563,350,469.1563,354,465.1563" style="stroke:#181818;stroke-width:1.0;"/><line style="stroke:#181818;stroke-width:1.0;" x1="36" x2="356" y1="465.1563" y2="465.1563"/><text fill="#000000" font-family="sans-serif" font-size="13" lengthAdjust="spacing" textLength="302" x="43" y="460.0903">Move gripper above Assembly Station vertically</text><polygon fill="#181818" points="47,490.2891,37,494.2891,47,498.2891,43,494.2891" style="stroke:#181818;stroke-width:1.0;"/><line style="stroke:#181818;stroke-width:1.0;" x1="41" x2="361" y1="494.2891" y2="494.2891"/><text fill="#000000" font-family="sans-serif" font-size="13" lengthAdjust="spacing" textLength="102" x="53" y="489.2231">Response move</text><!--SRC=[jP51QWCn34NtFiKdsn9eoQPaKIZPjhHCSm7R4S6WiOmbGkRsjPCGKWe3eLGxsNfFiXmbMnL6Zy-t3Mx3Amf7HzcIJUUZGOAOh-DDIPNWeZ1Jj2HPiNXLfJ7mXAqFJ8jpbLTrhjcmVEa4rdYN0s5VKobKuKFFhkIN-Ix3WQgbw9adrw76TiKQ0sbflGXZmsQqcOu64nHV3SrtySx9MAHW1KiZgUjF_67ViEXLVxgUKVsYXxOx8pmyFJzYH_jAbnRtE3uAvRyEiBnZ0CgxV_gtRm00]--></g></svg>