<?xml version="1.0" encoding="us-ascii" standalone="no"?><svg xmlns="http://www.w3.org/2000/svg" xmlns:xlink="http://www.w3.org/1999/xlink" contentStyleType="text/css" height="720px" preserveAspectRatio="none" style="width:646px;height:720px;background:#FFFFFF;" version="1.1" viewBox="0 0 646 720" width="646px" zoomAndPan="magnify"><defs/><g><rect fill="none" height="394.5313" style="stroke:#000000;stroke-width:1.5;" width="603" x="10" y="227.8281"/><line style="stroke:#181818;stroke-width:0.5;stroke-dasharray:5.0,5.0;" x1="36" x2="36" y1="81.2969" y2="639.3594"/><line style="stroke:#181818;stroke-width:0.5;stroke-dasharray:5.0,5.0;" x1="339.5" x2="339.5" y1="81.2969" y2="639.3594"/><line style="stroke:#181818;stroke-width:0.5;stroke-dasharray:5.0,5.0;" x1="460" x2="460" y1="81.2969" y2="639.3594"/><line style="stroke:#181818;stroke-width:0.5;stroke-dasharray:5.0,5.0;" x1="555" x2="555" y1="81.2969" y2="639.3594"/><text fill="#000000" font-family="sans-serif" font-size="14" lengthAdjust="spacing" textLength="26" x="20" y="77.9951">PLC</text><ellipse cx="36" cy="49" fill="#E2E2F0" rx="12" ry="12" style="stroke:#181818;stroke-width:0.5;"/><polygon fill="#181818" points="32,37,38,32,36,37,38,42,32,37" style="stroke:#181818;stroke-width:1.0;"/><text fill="#000000" font-family="sans-serif" font-size="14" lengthAdjust="spacing" textLength="26" x="20" y="651.3545">PLC</text><ellipse cx="36" cy="670.6563" fill="#E2E2F0" rx="12" ry="12" style="stroke:#181818;stroke-width:0.5;"/><polygon fill="#181818" points="32,658.6563,38,653.6563,36,658.6563,38,663.6563,32,658.6563" style="stroke:#181818;stroke-width:1.0;"/><text fill="#000000" font-family="sans-serif" font-size="14" lengthAdjust="spacing" textLength="61" x="306.5" y="77.9951">Operator</text><ellipse cx="340" cy="13.5" fill="#E2E2F0" rx="8" ry="8" style="stroke:#181818;stroke-width:0.5;"/><path d="M340,21.5 L340,48.5 M327,29.5 L353,29.5 M340,48.5 L327,63.5 M340,48.5 L353,63.5 " fill="none" style="stroke:#181818;stroke-width:0.5;"/><text fill="#000000" font-family="sans-serif" font-size="14" lengthAdjust="spacing" textLength="61" x="306.5" y="651.3545">Operator</text><ellipse cx="340" cy="663.1563" fill="#E2E2F0" rx="8" ry="8" style="stroke:#181818;stroke-width:0.5;"/><path d="M340,671.1563 L340,698.1563 M327,679.1563 L353,679.1563 M340,698.1563 L327,713.1563 M340,698.1563 L353,713.1563 " fill="none" style="stroke:#181818;stroke-width:0.5;"/><text fill="#000000" font-family="sans-serif" font-size="14" lengthAdjust="spacing" textLength="68" x="423" y="77.9951">Robotarm</text><ellipse cx="460" cy="49" fill="#E2E2F0" rx="12" ry="12" style="stroke:#181818;stroke-width:0.5;"/><line style="stroke:#181818;stroke-width:0.5;" x1="448" x2="472" y1="63" y2="63"/><text fill="#000000" font-family="sans-serif" font-size="14" lengthAdjust="spacing" textLength="68" x="423" y="651.3545">Robotarm</text><ellipse cx="460" cy="670.6563" fill="#E2E2F0" rx="12" ry="12" style="stroke:#181818;stroke-width:0.5;"/><line style="stroke:#181818;stroke-width:0.5;" x1="448" x2="472" y1="684.6563" y2="684.6563"/><rect fill="#E2E2F0" height="30.2969" style="stroke:#181818;stroke-width:0.5;" width="92" x="511" y="46"/><rect fill="#E2E2F0" height="30.2969" style="stroke:#181818;stroke-width:0.5;" width="92" x="507" y="50"/><text fill="#000000" font-family="sans-serif" font-size="14" lengthAdjust="spacing" textLength="78" x="514" y="69.9951">Parts Stock</text><rect fill="#E2E2F0" height="30.2969" style="stroke:#181818;stroke-width:0.5;" width="92" x="511" y="638.3594"/><rect fill="#E2E2F0" height="30.2969" style="stroke:#181818;stroke-width:0.5;" width="92" x="507" y="642.3594"/><text fill="#000000" font-family="sans-serif" font-size="14" lengthAdjust="spacing" textLength="78" x="514" y="662.3545">Parts Stock</text><polygon fill="#181818" points="448,108.4297,458,112.4297,448,116.4297,452,112.4297" style="stroke:#181818;stroke-width:1.0;"/><line style="stroke:#181818;stroke-width:1.0;" x1="36" x2="454" y1="112.4297" y2="112.4297"/><text fill="#000000" font-family="sans-serif" font-size="13" lengthAdjust="spacing" textLength="203" x="43" y="107.3638">Move gripper above Parts Stock</text><polygon fill="#181818" points="47,137.5625,37,141.5625,47,145.5625,43,141.5625" style="stroke:#181818;stroke-width:1.0;"/><line style="stroke:#181818;stroke-width:1.0;" x1="41" x2="459" y1="141.5625" y2="141.5625"/><text fill="#000000" font-family="sans-serif" font-size="13" lengthAdjust="spacing" textLength="102" x="53" y="136.4966">Response move</text><polygon fill="#181818" points="543,166.6953,553,170.6953,543,174.6953,547,170.6953" style="stroke:#181818;stroke-width:1.0;"/><line style="stroke:#181818;stroke-width:1.0;" x1="36" x2="549" y1="170.6953" y2="170.6953"/><text fill="#000000" font-family="sans-serif" font-size="13" lengthAdjust="spacing" textLength="124" x="43" y="165.6294">Do you have parts?</text><line style="stroke:#181818;stroke-width:1.0;" x1="555" x2="597" y1="199.8281" y2="199.8281"/><line style="stroke:#181818;stroke-width:1.0;" x1="597" x2="597" y1="199.8281" y2="212.8281"/><line style="stroke:#181818;stroke-width:1.0;" x1="556" x2="597" y1="212.8281" y2="212.8281"/><polygon fill="#181818" points="566,208.8281,556,212.8281,566,216.8281,562,212.8281" style="stroke:#181818;stroke-width:1.0;"/><text fill="#000000" font-family="sans-serif" font-size="13" lengthAdjust="spacing" textLength="77" x="562" y="194.7622">Stock check</text><path d="M10,227.8281 L74,227.8281 L74,234.9609 L64,244.9609 L10,244.9609 L10,227.8281 " fill="#EEEEEE" style="stroke:#000000;stroke-width:1.5;"/><rect fill="none" height="394.5313" style="stroke:#000000;stroke-width:1.5;" width="603" x="10" y="227.8281"/><text fill="#000000" font-family="sans-serif" font-size="13" font-weight="bold" lengthAdjust="spacing" textLength="19" x="25" y="240.895">alt</text><text fill="#000000" font-family="sans-serif" font-size="11" font-weight="bold" lengthAdjust="spacing" textLength="104" x="89" y="240.0386">[yes stock case]</text><polygon fill="#181818" points="47,262.0938,37,266.0938,47,270.0938,43,266.0938" style="stroke:#181818;stroke-width:1.0;"/><line style="stroke:#181818;stroke-width:1.0;" x1="41" x2="554" y1="266.0938" y2="266.0938"/><text fill="#000000" font-family="sans-serif" font-size="13" lengthAdjust="spacing" textLength="22" x="53" y="261.0278">Yes</text><polygon fill="#181818" points="448,291.2266,458,295.2266,448,299.2266,452,295.2266" style="stroke:#181818;stroke-width:1.0;"/><line style="stroke:#181818;stroke-width:1.0;" x1="36" x2="454" y1="295.2266" y2="295.2266"/><text fill="#000000" font-family="sans-serif" font-size="13" lengthAdjust="spacing" textLength="134" x="43" y="290.1606">Move to pick location</text><polygon fill="#181818" points="47,320.3594,37,324.3594,47,328.3594,43,324.3594" style="stroke:#181818;stroke-width:1.0;"/><line style="stroke:#181818;stroke-width:1.0;" x1="41" x2="459" y1="324.3594" y2="324.3594"/><text fill="#000000" font-family="sans-serif" font-size="13" lengthAdjust="spacing" textLength="102" x="53" y="319.2935">Response move</text><line style="stroke:#000000;stroke-width:1.0;stroke-dasharray:2.0,2.0;" x1="10" x2="613" y1="333.3594" y2="333.3594"/><text fill="#000000" font-family="sans-serif" font-size="11" font-weight="bold" lengthAdjust="spacing" textLength="98" x="15" y="343.5698">[no stock case]</text><polygon fill="#181818" points="47,364.2969,37,368.2969,47,372.2969,43,368.2969" style="stroke:#181818;stroke-width:1.0;"/><line style="stroke:#181818;stroke-width:1.0;" x1="41" x2="554" y1="368.2969" y2="368.2969"/><text fill="#000000" font-family="sans-serif" font-size="13" lengthAdjust="spacing" textLength="18" x="53" y="363.231">No</text><polygon fill="#181818" points="328,393.4297,338,397.4297,328,401.4297,332,397.4297" style="stroke:#181818;stroke-width:1.0;"/><line style="stroke:#181818;stroke-width:1.0;" x1="36" x2="334" y1="397.4297" y2="397.4297"/><text fill="#000000" font-family="sans-serif" font-size="13" lengthAdjust="spacing" textLength="56" x="43" y="392.3638">No stock</text><line style="stroke:#181818;stroke-width:1.0;" x1="340" x2="382" y1="426.5625" y2="426.5625"/><line style="stroke:#181818;stroke-width:1.0;" x1="382" x2="382" y1="426.5625" y2="439.5625"/><line style="stroke:#181818;stroke-width:1.0;" x1="341" x2="382" y1="439.5625" y2="439.5625"/><polygon fill="#181818" points="351,435.5625,341,439.5625,351,443.5625,347,439.5625" style="stroke:#181818;stroke-width:1.0;"/><text fill="#000000" font-family="sans-serif" font-size="13" lengthAdjust="spacing" textLength="106" x="347" y="421.4966">Grab more parts</text><polygon fill="#181818" points="543,464.6953,553,468.6953,543,472.6953,547,468.6953" style="stroke:#181818;stroke-width:1.0;"/><line style="stroke:#181818;stroke-width:1.0;" x1="340" x2="549" y1="468.6953" y2="468.6953"/><text fill="#000000" font-family="sans-serif" font-size="13" lengthAdjust="spacing" textLength="54" x="347" y="463.6294">Fill stock</text><polygon fill="#181818" points="47,493.8281,37,497.8281,47,501.8281,43,497.8281" style="stroke:#181818;stroke-width:1.0;"/><line style="stroke:#181818;stroke-width:1.0;" x1="41" x2="554" y1="497.8281" y2="497.8281"/><text fill="#000000" font-family="sans-serif" font-size="13" lengthAdjust="spacing" textLength="83" x="53" y="492.7622">Stock is filled</text><polygon fill="#181818" points="328,522.9609,338,526.9609,328,530.9609,332,526.9609" style="stroke:#181818;stroke-width:1.0;"/><line style="stroke:#181818;stroke-width:1.0;" x1="36" x2="334" y1="526.9609" y2="526.9609"/><text fill="#000000" font-family="sans-serif" font-size="13" lengthAdjust="spacing" textLength="280" x="43" y="521.895">Stock is filled confirmed, continue program?</text><polygon fill="#181818" points="47,552.0938,37,556.0938,47,560.0938,43,556.0938" style="stroke:#181818;stroke-width:1.0;"/><line style="stroke:#181818;stroke-width:1.0;" x1="41" x2="339" y1="556.0938" y2="556.0938"/><text fill="#000000" font-family="sans-serif" font-size="13" lengthAdjust="spacing" textLength="57" x="53" y="551.0278">Continue</text><polygon fill="#181818" points="448,581.2266,458,585.2266,448,589.2266,452,585.2266" style="stroke:#181818;stroke-width:1.0;"/><line style="stroke:#181818;stroke-width:1.0;" x1="36" x2="454" y1="585.2266" y2="585.2266"/><text fill="#000000" font-family="sans-serif" font-size="13" lengthAdjust="spacing" textLength="134" x="43" y="580.1606">Move to pick location</text><polygon fill="#181818" points="47,610.3594,37,614.3594,47,618.3594,43,614.3594" style="stroke:#181818;stroke-width:1.0;"/><line style="stroke:#181818;stroke-width:1.0;" x1="41" x2="459" y1="614.3594" y2="614.3594"/><text fill="#000000" font-family="sans-serif" font-size="13" lengthAdjust="spacing" textLength="102" x="53" y="609.2935">Response move</text><!--SRC=[VLBDJiCm3BxdAQoTuGLsO8SXkF0pZHF7DFMsYBIEd0ofRu_Tb982Qax9v-_7jkAepqm1z1oUzb0Vco06PwpBn1Fq6f7jprCf59F1Fliy5EX83MNBNKLXQeoZ4D1bJts2pS5oJl2MoNrivYZEnaWUtDwf0BRmJ9y8P_PHGi4s-gg4Had2LSaMZfYYM2DqGlks4KiftHCCT8MB5NrK_SveOQwFRk0kA9x6XWm39aW5j0dDp1w3tZ7zqsKcY5u4WPpL6TUQmo2tdke8NS4YvOKALe9anIDM96D5eRdooBOHRvxcgmbbn0SVGYLUH9NnVOAJaB3zc_kB08xwa-SEsnkzPjzV9PVfpBRRBQ97-_r4gNtN5gUqbUN9Lsk_0000]--></g></svg>