<?xml version="1.0" encoding="us-ascii" standalone="no"?><svg xmlns="http://www.w3.org/2000/svg" xmlns:xlink="http://www.w3.org/1999/xlink" contentStyleType="text/css" height="387px" preserveAspectRatio="none" style="width:568px;height:387px;background:#FFFFFF;" version="1.1" viewBox="0 0 568 387" width="568px" zoomAndPan="magnify"><defs/><g><!--entity Proximity_sensor--><g id="elem_Proximity_sensor"><rect fill="#F1F1F1" height="46.2969" rx="2.5" ry="2.5" style="stroke:#181818;stroke-width:0.5;" width="156" x="112" y="113.3"/><rect fill="#F1F1F1" height="10" style="stroke:#181818;stroke-width:0.5;" width="15" x="248" y="118.3"/><rect fill="#F1F1F1" height="2" style="stroke:#181818;stroke-width:0.5;" width="4" x="246" y="120.3"/><rect fill="#F1F1F1" height="2" style="stroke:#181818;stroke-width:0.5;" width="4" x="246" y="124.3"/><text fill="#000000" font-family="sans-serif" font-size="14" lengthAdjust="spacing" textLength="116" x="127" y="146.2951">Proximity_sensor</text></g><!--entity Tool--><g id="elem_Tool"><rect fill="#F1F1F1" height="46.2969" rx="2.5" ry="2.5" style="stroke:#181818;stroke-width:0.5;" width="70" x="7" y="113.3"/><rect fill="#F1F1F1" height="10" style="stroke:#181818;stroke-width:0.5;" width="15" x="57" y="118.3"/><rect fill="#F1F1F1" height="2" style="stroke:#181818;stroke-width:0.5;" width="4" x="55" y="120.3"/><rect fill="#F1F1F1" height="2" style="stroke:#181818;stroke-width:0.5;" width="4" x="55" y="124.3"/><text fill="#000000" font-family="sans-serif" font-size="14" lengthAdjust="spacing" textLength="30" x="22" y="146.2951">Tool</text></g><!--entity Robot_effector--><g id="elem_Robot_effector"><rect fill="#F1F1F1" height="46.2969" rx="2.5" ry="2.5" style="stroke:#181818;stroke-width:0.5;" width="142" x="93" y="219.6"/><rect fill="#F1F1F1" height="10" style="stroke:#181818;stroke-width:0.5;" width="15" x="215" y="224.6"/><rect fill="#F1F1F1" height="2" style="stroke:#181818;stroke-width:0.5;" width="4" x="213" y="226.6"/><rect fill="#F1F1F1" height="2" style="stroke:#181818;stroke-width:0.5;" width="4" x="213" y="230.6"/><text fill="#000000" font-family="sans-serif" font-size="14" lengthAdjust="spacing" textLength="102" x="108" y="252.5951">Robot_effector</text></g><!--entity Robot--><g id="elem_Robot"><rect fill="#F1F1F1" height="46.2969" rx="2.5" ry="2.5" style="stroke:#181818;stroke-width:0.5;" width="82" x="465" y="219.6"/><rect fill="#F1F1F1" height="10" style="stroke:#181818;stroke-width:0.5;" width="15" x="527" y="224.6"/><rect fill="#F1F1F1" height="2" style="stroke:#181818;stroke-width:0.5;" width="4" x="525" y="226.6"/><rect fill="#F1F1F1" height="2" style="stroke:#181818;stroke-width:0.5;" width="4" x="525" y="230.6"/><text fill="#000000" font-family="sans-serif" font-size="14" lengthAdjust="spacing" textLength="42" x="480" y="252.5951">Robot</text></g><!--entity Controller--><g id="elem_Controller"><rect fill="#F1F1F1" height="46.2969" rx="2.5" ry="2.5" style="stroke:#181818;stroke-width:0.5;" width="107" x="355.5" y="113.3"/><rect fill="#F1F1F1" height="10" style="stroke:#181818;stroke-width:0.5;" width="15" x="442.5" y="118.3"/><rect fill="#F1F1F1" height="2" style="stroke:#181818;stroke-width:0.5;" width="4" x="440.5" y="120.3"/><rect fill="#F1F1F1" height="2" style="stroke:#181818;stroke-width:0.5;" width="4" x="440.5" y="124.3"/><text fill="#000000" font-family="sans-serif" font-size="14" lengthAdjust="spacing" textLength="67" x="370.5" y="146.2951">Controller</text></g><!--entity Table--><g id="elem_Table"><rect fill="#F1F1F1" height="46.2969" rx="2.5" ry="2.5" style="stroke:#181818;stroke-width:0.5;" width="78" x="384" y="325.89"/><rect fill="#F1F1F1" height="10" style="stroke:#181818;stroke-width:0.5;" width="15" x="442" y="330.89"/><rect fill="#F1F1F1" height="2" style="stroke:#181818;stroke-width:0.5;" width="4" x="440" y="332.89"/><rect fill="#F1F1F1" height="2" style="stroke:#181818;stroke-width:0.5;" width="4" x="440" y="336.89"/><text fill="#000000" font-family="sans-serif" font-size="14" lengthAdjust="spacing" textLength="38" x="399" y="358.8851">Table</text></g><!--entity Powergrid--><g id="elem_Powergrid"><rect fill="#F1F1F1" height="46.2969" rx="2.5" ry="2.5" style="stroke:#181818;stroke-width:0.5;" width="109" x="453.5" y="7"/><rect fill="#F1F1F1" height="10" style="stroke:#181818;stroke-width:0.5;" width="15" x="542.5" y="12"/><rect fill="#F1F1F1" height="2" style="stroke:#181818;stroke-width:0.5;" width="4" x="540.5" y="14"/><rect fill="#F1F1F1" height="2" style="stroke:#181818;stroke-width:0.5;" width="4" x="540.5" y="18"/><text fill="#000000" font-family="sans-serif" font-size="14" lengthAdjust="spacing" textLength="69" x="468.5" y="39.9951">Powergrid</text></g><!--entity Location--><g id="elem_Location"><ellipse cx="340" cy="349.04" fill="#F1F1F1" rx="8" ry="8" style="stroke:#181818;stroke-width:0.5;"/><text fill="#000000" font-family="sans-serif" font-size="14" lengthAdjust="spacing" textLength="58" x="311" y="379.0351">Location</text></g><!--entity Power--><g id="elem_Power"><ellipse cx="506" cy="136.45" fill="#F1F1F1" rx="8" ry="8" style="stroke:#181818;stroke-width:0.5;"/><text fill="#000000" font-family="sans-serif" font-size="14" lengthAdjust="spacing" textLength="43" x="484.5" y="166.4451">Power</text></g><!--entity Energy_supply--><g id="elem_Energy_supply"><ellipse cx="409" cy="30.15" fill="#F1F1F1" rx="8" ry="8" style="stroke:#181818;stroke-width:0.5;"/><text fill="#000000" font-family="sans-serif" font-size="14" lengthAdjust="spacing" textLength="100" x="359" y="60.1451">Energy_supply</text></g><!--entity Mounted--><g id="elem_Mounted"><ellipse cx="49" cy="242.74" fill="#F1F1F1" rx="8" ry="8" style="stroke:#181818;stroke-width:0.5;"/><text fill="#000000" font-family="sans-serif" font-size="14" lengthAdjust="spacing" textLength="62" x="18" y="272.7351">Mounted</text></g><!--entity Connected--><g id="elem_Connected"><ellipse cx="279" cy="242.74" fill="#F1F1F1" rx="8" ry="8" style="stroke:#181818;stroke-width:0.5;"/><text fill="#000000" font-family="sans-serif" font-size="14" lengthAdjust="spacing" textLength="77" x="240.5" y="272.7351">Connected</text></g><!--entity DI--><g id="elem_DI"><ellipse cx="312" cy="136.45" fill="#F1F1F1" rx="8" ry="8" style="stroke:#181818;stroke-width:0.5;"/><text fill="#000000" font-family="sans-serif" font-size="14" lengthAdjust="spacing" textLength="14" x="305" y="166.4451">DI</text></g><!--entity Instructions--><g id="elem_Instructions"><ellipse cx="506" cy="349.04" fill="#F1F1F1" rx="8" ry="8" style="stroke:#181818;stroke-width:0.5;"/><text fill="#000000" font-family="sans-serif" font-size="14" lengthAdjust="spacing" textLength="81" x="465.5" y="379.0351">Instructions</text></g><!--link Location to Table--><g id="link_Location_Table"><path d="M349.4,349.04 C360.81,349.04 372.21,349.04 383.61,349.04 " fill="none" id="Location-Table" style="stroke:#181818;stroke-width:1.0;"/></g><!--link Controller to Location--><g id="link_Controller_Location"><path d="M401.62,159.99 C387.29,203.72 356.1,298.9 344.48,334.37 " fill="none" id="Controller-to-Location" style="stroke:#181818;stroke-width:1.0;"/><polygon fill="#181818" points="342.67,338.9,349.2713,331.5909,344.2254,334.1481,341.6682,329.1022,342.67,338.9" style="stroke:#181818;stroke-width:1.0;"/></g><!--link Controller to Power--><g id="link_Controller_Power"><path d="M462.8,136.45 C474.05,136.45 485.3,136.45 496.55,136.45 " fill="none" id="Controller-Power" style="stroke:#181818;stroke-width:1.0;"/></g><!--reverse link Energy_supply to Controller--><g id="link_Energy_supply_Controller"><path d="M409,45.11 C409,62.44 409,92.2 409,112.81 " fill="none" id="Energy_supply-backto-Controller" style="stroke:#181818;stroke-width:1.0;"/><polygon fill="#181818" points="409,40.33,405.0257,49.3414,409.0143,45.33,413.0257,49.3185,409,40.33" style="stroke:#181818;stroke-width:1.0;"/></g><!--link Energy_supply to Powergrid--><g id="link_Energy_supply_Powergrid"><path d="M418.28,30.15 C429.96,30.15 441.65,30.15 453.33,30.15 " fill="none" id="Energy_supply-Powergrid" style="stroke:#181818;stroke-width:1.0;"/></g><!--link Mounted to Robot_effector--><g id="link_Mounted_Robot_effector"><path d="M58.43,242.74 C69.84,242.74 81.25,242.74 92.66,242.74 " fill="none" id="Mounted-Robot_effector" style="stroke:#181818;stroke-width:1.0;"/></g><!--link Robot to Location--><g id="link_Robot_Location"><path d="M464.52,266.05 C436.34,281.74 398.58,303.8 367,325.89 C362.48,329.06 357.75,332.77 353.55,336.25 " fill="none" id="Robot-to-Location" style="stroke:#181818;stroke-width:1.0;"/><polygon fill="#181818" points="350.22,339.89,359.6848,337.1666,354.0494,336.675,354.5409,331.0396,350.22,339.89" style="stroke:#181818;stroke-width:1.0;"/></g><!--reverse link Power to Robot--><g id="link_Power_Robot"><path d="M506,151.41 C506,168.74 506,198.5 506,219.11 " fill="none" id="Power-backto-Robot" style="stroke:#181818;stroke-width:1.0;"/><polygon fill="#181818" points="506,146.63,502,155.63,506,151.63,510,155.63,506,146.63" style="stroke:#181818;stroke-width:1.0;"/></g><!--link Robot_effector to Connected--><g id="link_Robot_effector_Connected"><path d="M235.43,242.74 C244.92,242.74 254.41,242.74 263.9,242.74 " fill="none" id="Robot_effector-to-Connected" style="stroke:#181818;stroke-width:1.0;"/><polygon fill="#181818" points="268.81,242.74,259.81,238.74,263.81,242.74,259.81,246.74,268.81,242.74" style="stroke:#181818;stroke-width:1.0;"/></g><!--link Proximity_sensor to Mounted--><g id="link_Proximity_sensor_Mounted"><path d="M157.67,159.94 C134.63,176.16 103.07,198.77 76,219.6 C71.62,222.96 66.94,226.74 62.73,230.2 " fill="none" id="Proximity_sensor-to-Mounted" style="stroke:#181818;stroke-width:1.0;"/><polygon fill="#181818" points="59.38,233.81,68.8606,231.142,63.2281,230.6175,63.7526,224.985,59.38,233.81" style="stroke:#181818;stroke-width:1.0;"/></g><!--link Connected to Robot--><g id="link_Connected_Robot"><path d="M288.31,242.74 C347.13,242.74 405.94,242.74 464.76,242.74 " fill="none" id="Connected-Robot" style="stroke:#181818;stroke-width:1.0;"/></g><!--link Tool to Mounted--><g id="link_Tool_Mounted"><path d="M43.52,160.08 C44.89,180.57 46.88,210.12 48.04,227.49 " fill="none" id="Tool-to-Mounted" style="stroke:#181818;stroke-width:1.0;"/><polygon fill="#181818" points="48.43,232.3,51.8031,223.0468,48.087,227.3118,43.822,223.5956,48.43,232.3" style="stroke:#181818;stroke-width:1.0;"/></g><!--link Proximity_sensor to DI--><g id="link_Proximity_sensor_DI"><path d="M268.16,136.45 C277.71,136.45 287.26,136.45 296.81,136.45 " fill="none" id="Proximity_sensor-to-DI" style="stroke:#181818;stroke-width:1.0;"/><polygon fill="#181818" points="301.75,136.45,292.75,132.45,296.75,136.45,292.75,140.45,301.75,136.45" style="stroke:#181818;stroke-width:1.0;"/></g><!--link DI to Controller--><g id="link_DI_Controller"><path d="M321.47,136.45 C332.76,136.45 344.04,136.45 355.32,136.45 " fill="none" id="DI-Controller" style="stroke:#181818;stroke-width:1.0;"/></g><!--link Robot to Instructions--><g id="link_Robot_Instructions"><path d="M506,266.38 C506,286.87 506,316.42 506,333.79 " fill="none" id="Robot-to-Instructions" style="stroke:#181818;stroke-width:1.0;"/><polygon fill="#181818" points="506,338.59,510,329.59,506,333.59,502,329.59,506,338.59" style="stroke:#181818;stroke-width:1.0;"/></g><!--link Instructions to Controller--><g id="link_Instructions_Controller"><path d="M498.4,339.55 C486,325.3 461.36,295.23 447,265.89 C429.72,230.59 418.69,185.92 413.2,159.64 " fill="none" id="Instructions-Controller" style="stroke:#181818;stroke-width:1.0;"/></g><!--SRC=[PL1B2i903Dtd5Bd0t42wKHS5XIBkf9H-fb8O9pATehszcT3Vr5L8tY_98tFqxLwT7ujUsvvS3eyxaU5oeufyeTjMrrxcCk1w9EiT6QE5N5P6SyteeztJTKqESA6wz1rPL2Wmm2f1fLI2CoC2K3m0pfQTU9_X_JOZ7fJ2bRK39qt81RZIOBrkU1Yl3jBYDbPKOYqOGAm8NCwqtEW6zY_2SC4K1WiD5w_mluZpRv3WAOLJYj5fyvwCfhRtRgZ3hZricqZn0m00]--></g></svg>