<?xml version="1.0" encoding="us-ascii" standalone="no"?><svg xmlns="http://www.w3.org/2000/svg" xmlns:xlink="http://www.w3.org/1999/xlink" contentStyleType="text/css" height="358px" preserveAspectRatio="none" style="width:476px;height:358px;background:#FFFFFF;" version="1.1" viewBox="0 0 476 358" width="476px" zoomAndPan="magnify"><defs/><g><line style="stroke:#181818;stroke-width:0.5;stroke-dasharray:5.0,5.0;" x1="21" x2="21" y1="53.2969" y2="306.3594"/><line style="stroke:#181818;stroke-width:0.5;stroke-dasharray:5.0,5.0;" x1="287" x2="287" y1="53.2969" y2="306.3594"/><line style="stroke:#181818;stroke-width:0.5;stroke-dasharray:5.0,5.0;" x1="402" x2="402" y1="53.2969" y2="306.3594"/><text fill="#000000" font-family="sans-serif" font-size="14" lengthAdjust="spacing" textLength="26" x="5" y="49.9951">PLC</text><ellipse cx="21" cy="21" fill="#E2E2F0" rx="12" ry="12" style="stroke:#181818;stroke-width:0.5;"/><polygon fill="#181818" points="17,9,23,4,21,9,23,14,17,9" style="stroke:#181818;stroke-width:1.0;"/><text fill="#000000" font-family="sans-serif" font-size="14" lengthAdjust="spacing" textLength="26" x="5" y="318.3545">PLC</text><ellipse cx="21" cy="337.6563" fill="#E2E2F0" rx="12" ry="12" style="stroke:#181818;stroke-width:0.5;"/><polygon fill="#181818" points="17,325.6563,23,320.6563,21,325.6563,23,330.6563,17,325.6563" style="stroke:#181818;stroke-width:1.0;"/><text fill="#000000" font-family="sans-serif" font-size="14" lengthAdjust="spacing" textLength="68" x="250" y="49.9951">Robotarm</text><ellipse cx="287" cy="21" fill="#E2E2F0" rx="12" ry="12" style="stroke:#181818;stroke-width:0.5;"/><line style="stroke:#181818;stroke-width:0.5;" x1="275" x2="299" y1="35" y2="35"/><text fill="#000000" font-family="sans-serif" font-size="14" lengthAdjust="spacing" textLength="68" x="250" y="318.3545">Robotarm</text><ellipse cx="287" cy="337.6563" fill="#E2E2F0" rx="12" ry="12" style="stroke:#181818;stroke-width:0.5;"/><line style="stroke:#181818;stroke-width:0.5;" x1="275" x2="299" y1="351.6563" y2="351.6563"/><rect fill="#E2E2F0" height="30.2969" style="stroke:#181818;stroke-width:0.5;" width="132" x="338" y="18"/><rect fill="#E2E2F0" height="30.2969" style="stroke:#181818;stroke-width:0.5;" width="132" x="334" y="22"/><text fill="#000000" font-family="sans-serif" font-size="14" lengthAdjust="spacing" textLength="118" x="341" y="41.9951">Assembly Station</text><rect fill="#E2E2F0" height="30.2969" style="stroke:#181818;stroke-width:0.5;" width="132" x="338" y="305.3594"/><rect fill="#E2E2F0" height="30.2969" style="stroke:#181818;stroke-width:0.5;" width="132" x="334" y="309.3594"/><text fill="#000000" font-family="sans-serif" font-size="14" lengthAdjust="spacing" textLength="118" x="341" y="329.3545">Assembly Station</text><polygon fill="#181818" points="275,80.4297,285,84.4297,275,88.4297,279,84.4297" style="stroke:#181818;stroke-width:1.0;"/><line style="stroke:#181818;stroke-width:1.0;" x1="21" x2="281" y1="84.4297" y2="84.4297"/><text fill="#000000" font-family="sans-serif" font-size="13" lengthAdjust="spacing" textLength="242" x="28" y="79.3638">Move gripper above Assembly Station</text><polygon fill="#181818" points="32,109.5625,22,113.5625,32,117.5625,28,113.5625" style="stroke:#181818;stroke-width:1.0;"/><line style="stroke:#181818;stroke-width:1.0;" x1="26" x2="286" y1="113.5625" y2="113.5625"/><text fill="#000000" font-family="sans-serif" font-size="13" lengthAdjust="spacing" textLength="102" x="38" y="108.4966">Response move</text><polygon fill="#181818" points="275,138.6953,285,142.6953,275,146.6953,279,142.6953" style="stroke:#181818;stroke-width:1.0;"/><line style="stroke:#181818;stroke-width:1.0;" x1="21" x2="281" y1="142.6953" y2="142.6953"/><text fill="#000000" font-family="sans-serif" font-size="13" lengthAdjust="spacing" textLength="230" x="28" y="137.6294">Move close above Assembly Station</text><polygon fill="#181818" points="32,167.8281,22,171.8281,32,175.8281,28,171.8281" style="stroke:#181818;stroke-width:1.0;"/><line style="stroke:#181818;stroke-width:1.0;" x1="26" x2="286" y1="171.8281" y2="171.8281"/><text fill="#000000" font-family="sans-serif" font-size="13" lengthAdjust="spacing" textLength="102" x="38" y="166.7622">Response move</text><polygon fill="#181818" points="275,196.9609,285,200.9609,275,204.9609,279,200.9609" style="stroke:#181818;stroke-width:1.0;"/><line style="stroke:#181818;stroke-width:1.0;" x1="21" x2="281" y1="200.9609" y2="200.9609"/><text fill="#000000" font-family="sans-serif" font-size="13" lengthAdjust="spacing" textLength="83" x="28" y="195.895">Open gripper</text><polygon fill="#181818" points="32,226.0938,22,230.0938,32,234.0938,28,230.0938" style="stroke:#181818;stroke-width:1.0;"/><line style="stroke:#181818;stroke-width:1.0;" x1="26" x2="286" y1="230.0938" y2="230.0938"/><text fill="#000000" font-family="sans-serif" font-size="13" lengthAdjust="spacing" textLength="102" x="38" y="225.0278">Response move</text><polygon fill="#181818" points="275,255.2266,285,259.2266,275,263.2266,279,259.2266" style="stroke:#181818;stroke-width:1.0;"/><line style="stroke:#181818;stroke-width:1.0;" x1="21" x2="281" y1="259.2266" y2="259.2266"/><text fill="#000000" font-family="sans-serif" font-size="13" lengthAdjust="spacing" textLength="193" x="28" y="254.1606">Move above Assembly Station</text><polygon fill="#181818" points="32,284.3594,22,288.3594,32,292.3594,28,288.3594" style="stroke:#181818;stroke-width:1.0;"/><line style="stroke:#181818;stroke-width:1.0;" x1="26" x2="286" y1="288.3594" y2="288.3594"/><text fill="#000000" font-family="sans-serif" font-size="13" lengthAdjust="spacing" textLength="102" x="38" y="283.2935">Response move</text><!--SRC=[fOx12W8n34Jl_OfXx_x07WJngYZh5xGbI27Rb2O8-_UsBC8YNXRdbkJDJA9agyBekb_EsCeh2aT7sP8jwsgI8ERhl46g11U5cQ8boOhXf4fpu0KFytqrh9nNTQxbuN3i7eouoelmhAaKgl2XJzzUrybcwBuH4sbf5OIviJ-o8aix_fbqAvG_N-shtrty1W00]--></g></svg>