<?xml version="1.0" encoding="us-ascii" standalone="no"?><svg xmlns="http://www.w3.org/2000/svg" xmlns:xlink="http://www.w3.org/1999/xlink" contentStyleType="text/css" height="2133px" preserveAspectRatio="none" style="width:339px;height:2133px;background:#FFFFFF;" version="1.1" viewBox="0 0 339 2133" width="339px" zoomAndPan="magnify"><defs/><g><ellipse cx="156.5" cy="20" fill="#222222" rx="10" ry="10" style="stroke:#222222;stroke-width:1.0;"/><rect fill="#F1F1F1" height="33.9688" rx="12.5" ry="12.5" style="stroke:#181818;stroke-width:0.5;" width="39" x="137" y="50"/><text fill="#000000" font-family="sans-serif" font-size="12" lengthAdjust="spacing" textLength="19" x="147" y="71.1387">Init</text><rect fill="#F1F1F1" height="33.9688" rx="12.5" ry="12.5" style="stroke:#181818;stroke-width:0.5;" width="96" x="108.5" y="103.9688"/><text fill="#000000" font-family="sans-serif" font-size="12" lengthAdjust="spacing" textLength="76" x="118.5" y="125.1074">Stack check</text><polygon fill="#F1F1F1" points="156.5,157.9375,168.5,169.9375,156.5,181.9375,144.5,169.9375,156.5,157.9375" style="stroke:#181818;stroke-width:0.5;"/><polygon fill="#F1F1F1" points="127.5,255.9063,185.5,255.9063,197.5,267.9063,185.5,279.9063,127.5,279.9063,115.5,267.9063,127.5,255.9063" style="stroke:#181818;stroke-width:0.5;"/><text fill="#000000" font-family="sans-serif" font-size="11" lengthAdjust="spacing" textLength="58" x="127.5" y="271.7144">Stack full?</text><text fill="#000000" font-family="sans-serif" font-size="11" lengthAdjust="spacing" textLength="14" x="197.5" y="265.312">no</text><rect fill="#F1F1F1" height="33.9688" rx="12.5" ry="12.5" style="stroke:#181818;stroke-width:0.5;" width="107" x="221.5" y="191.9375"/><text fill="#000000" font-family="sans-serif" font-size="12" lengthAdjust="spacing" textLength="87" x="231.5" y="213.0762">Restock parts</text><rect fill="#F1F1F1" height="33.9688" rx="12.5" ry="12.5" style="stroke:#181818;stroke-width:0.5;" width="211" x="51" y="321.3052"/><text fill="#000000" font-family="sans-serif" font-size="12" lengthAdjust="spacing" textLength="191" x="61" y="342.4438">Move gripper tool to storage 1</text><rect fill="#F1F1F1" height="33.9688" rx="12.5" ry="12.5" style="stroke:#181818;stroke-width:0.5;" width="75" x="119" y="375.2739"/><text fill="#000000" font-family="sans-serif" font-size="12" lengthAdjust="spacing" textLength="55" x="129" y="396.4126">Grab nut</text><rect fill="#F1F1F1" height="33.9688" rx="12.5" ry="12.5" style="stroke:#181818;stroke-width:0.5;" width="256" x="28.5" y="429.2427"/><text fill="#000000" font-family="sans-serif" font-size="12" lengthAdjust="spacing" textLength="236" x="38.5" y="450.3813">Move gripper tool to assembly table 1</text><rect fill="#F1F1F1" height="33.9688" rx="12.5" ry="12.5" style="stroke:#181818;stroke-width:0.5;" width="109" x="102" y="483.2114"/><text fill="#000000" font-family="sans-serif" font-size="12" lengthAdjust="spacing" textLength="89" x="112" y="504.3501">Place nut M24</text><rect fill="#F1F1F1" height="33.9688" rx="12.5" ry="12.5" style="stroke:#181818;stroke-width:0.5;" width="211" x="51" y="537.1802"/><text fill="#000000" font-family="sans-serif" font-size="12" lengthAdjust="spacing" textLength="191" x="61" y="558.3188">Move gripper tool to storage 2</text><rect fill="#F1F1F1" height="33.9688" rx="12.5" ry="12.5" style="stroke:#181818;stroke-width:0.5;" width="143" x="85" y="591.1489"/><text fill="#000000" font-family="sans-serif" font-size="12" lengthAdjust="spacing" textLength="123" x="95" y="612.2876">Grab extension ring</text><rect fill="#F1F1F1" height="33.9688" rx="12.5" ry="12.5" style="stroke:#181818;stroke-width:0.5;" width="256" x="28.5" y="645.1177"/><text fill="#000000" font-family="sans-serif" font-size="12" lengthAdjust="spacing" textLength="236" x="38.5" y="666.2563">Move gripper tool to assembly table 1</text><rect fill="#F1F1F1" height="33.9688" rx="12.5" ry="12.5" style="stroke:#181818;stroke-width:0.5;" width="82" x="115.5" y="699.0864"/><text fill="#000000" font-family="sans-serif" font-size="12" lengthAdjust="spacing" textLength="62" x="125.5" y="720.2251">Place ring</text><rect fill="#F1F1F1" height="33.9688" rx="12.5" ry="12.5" style="stroke:#181818;stroke-width:0.5;" width="211" x="51" y="753.0552"/><text fill="#000000" font-family="sans-serif" font-size="12" lengthAdjust="spacing" textLength="191" x="61" y="774.1938">Move gripper tool to storage 3</text><rect fill="#F1F1F1" height="33.9688" rx="12.5" ry="12.5" style="stroke:#181818;stroke-width:0.5;" width="115" x="99" y="807.0239"/><text fill="#000000" font-family="sans-serif" font-size="12" lengthAdjust="spacing" textLength="95" x="109" y="828.1626">Grab base part</text><rect fill="#F1F1F1" height="33.9688" rx="12.5" ry="12.5" style="stroke:#181818;stroke-width:0.5;" width="256" x="28.5" y="860.9927"/><text fill="#000000" font-family="sans-serif" font-size="12" lengthAdjust="spacing" textLength="236" x="38.5" y="882.1313">Move gripper tool to assembly table 1</text><rect fill="#F1F1F1" height="33.9688" rx="12.5" ry="12.5" style="stroke:#181818;stroke-width:0.5;" width="262" x="25.5" y="914.9614"/><text fill="#000000" font-family="sans-serif" font-size="12" lengthAdjust="spacing" textLength="242" x="35.5" y="936.1001">Place and screw base part on nut M24</text><rect fill="#F1F1F1" height="33.9688" rx="12.5" ry="12.5" style="stroke:#181818;stroke-width:0.5;" width="211" x="51" y="968.9302"/><text fill="#000000" font-family="sans-serif" font-size="12" lengthAdjust="spacing" textLength="191" x="61" y="990.0688">Move gripper tool to storage 4</text><rect fill="#F1F1F1" height="33.9688" rx="12.5" ry="12.5" style="stroke:#181818;stroke-width:0.5;" width="145" x="84" y="1022.8989"/><text fill="#000000" font-family="sans-serif" font-size="12" lengthAdjust="spacing" textLength="125" x="94" y="1044.0376">Grab extension part</text><rect fill="#F1F1F1" height="33.9688" rx="12.5" ry="12.5" style="stroke:#181818;stroke-width:0.5;" width="256" x="28.5" y="1076.8677"/><text fill="#000000" font-family="sans-serif" font-size="12" lengthAdjust="spacing" textLength="236" x="38.5" y="1098.0063">Move gripper tool to assembly table 2</text><rect fill="#F1F1F1" height="33.9688" rx="12.5" ry="12.5" style="stroke:#181818;stroke-width:0.5;" width="149" x="82" y="1130.8364"/><text fill="#000000" font-family="sans-serif" font-size="12" lengthAdjust="spacing" textLength="129" x="92" y="1151.9751">Place extension part</text><rect fill="#F1F1F1" height="33.9688" rx="12.5" ry="12.5" style="stroke:#181818;stroke-width:0.5;" width="211" x="51" y="1184.8052"/><text fill="#000000" font-family="sans-serif" font-size="12" lengthAdjust="spacing" textLength="191" x="61" y="1205.9438">Move gripper tool to storage 5</text><rect fill="#F1F1F1" height="33.9688" rx="12.5" ry="12.5" style="stroke:#181818;stroke-width:0.5;" width="105" x="104" y="1238.7739"/><text fill="#000000" font-family="sans-serif" font-size="12" lengthAdjust="spacing" textLength="85" x="114" y="1259.9126">Grab nut M30</text><rect fill="#F1F1F1" height="33.9688" rx="12.5" ry="12.5" style="stroke:#181818;stroke-width:0.5;" width="256" x="28.5" y="1292.7427"/><text fill="#000000" font-family="sans-serif" font-size="12" lengthAdjust="spacing" textLength="236" x="38.5" y="1313.8813">Move gripper tool to assembly table 2</text><rect fill="#F1F1F1" height="33.9688" rx="12.5" ry="12.5" style="stroke:#181818;stroke-width:0.5;" width="235" x="39" y="1346.7114"/><text fill="#000000" font-family="sans-serif" font-size="12" lengthAdjust="spacing" textLength="215" x="49" y="1367.8501">Place nut M30 over extension part</text><rect fill="#F1F1F1" height="33.9688" rx="12.5" ry="12.5" style="stroke:#181818;stroke-width:0.5;" width="145" x="84" y="1400.6802"/><text fill="#000000" font-family="sans-serif" font-size="12" lengthAdjust="spacing" textLength="125" x="94" y="1421.8188">Grab extension part</text><rect fill="#F1F1F1" height="33.9688" rx="12.5" ry="12.5" style="stroke:#181818;stroke-width:0.5;" width="191" x="61" y="1454.6489"/><text fill="#000000" font-family="sans-serif" font-size="12" lengthAdjust="spacing" textLength="171" x="71" y="1475.7876">Move to assembly station 1</text><rect fill="#F1F1F1" height="33.9688" rx="12.5" ry="12.5" style="stroke:#181818;stroke-width:0.5;" width="234" x="39.5" y="1508.6177"/><text fill="#000000" font-family="sans-serif" font-size="12" lengthAdjust="spacing" textLength="214" x="49.5" y="1529.7563">Place extension part on base part</text><rect fill="#F1F1F1" height="33.9688" rx="12.5" ry="12.5" style="stroke:#181818;stroke-width:0.5;" width="197" x="58" y="1562.5864"/><text fill="#000000" font-family="sans-serif" font-size="12" lengthAdjust="spacing" textLength="177" x="68" y="1583.7251">Screw nut M30 on base part</text><rect fill="#F1F1F1" height="33.9688" rx="12.5" ry="12.5" style="stroke:#181818;stroke-width:0.5;" width="211" x="51" y="1616.5552"/><text fill="#000000" font-family="sans-serif" font-size="12" lengthAdjust="spacing" textLength="191" x="61" y="1637.6938">Move gripper tool to storage 2</text><rect fill="#F1F1F1" height="33.9688" rx="12.5" ry="12.5" style="stroke:#181818;stroke-width:0.5;" width="78" x="117.5" y="1670.5239"/><text fill="#000000" font-family="sans-serif" font-size="12" lengthAdjust="spacing" textLength="58" x="127.5" y="1691.6626">Grab ring</text><rect fill="#F1F1F1" height="33.9688" rx="12.5" ry="12.5" style="stroke:#181818;stroke-width:0.5;" width="256" x="28.5" y="1724.4927"/><text fill="#000000" font-family="sans-serif" font-size="12" lengthAdjust="spacing" textLength="236" x="38.5" y="1745.6313">Move gripper tool to assembly table 1</text><rect fill="#F1F1F1" height="33.9688" rx="12.5" ry="12.5" style="stroke:#181818;stroke-width:0.5;" width="197" x="58" y="1778.4614"/><text fill="#000000" font-family="sans-serif" font-size="12" lengthAdjust="spacing" textLength="177" x="68" y="1799.6001">Place ring on extension part</text><rect fill="#F1F1F1" height="33.9688" rx="12.5" ry="12.5" style="stroke:#181818;stroke-width:0.5;" width="211" x="51" y="1832.4302"/><text fill="#000000" font-family="sans-serif" font-size="12" lengthAdjust="spacing" textLength="191" x="61" y="1853.5688">Move gripper tool to storage 1</text><rect fill="#F1F1F1" height="33.9688" rx="12.5" ry="12.5" style="stroke:#181818;stroke-width:0.5;" width="105" x="104" y="1886.3989"/><text fill="#000000" font-family="sans-serif" font-size="12" lengthAdjust="spacing" textLength="85" x="114" y="1907.5376">Grab nut M24</text><rect fill="#F1F1F1" height="33.9688" rx="12.5" ry="12.5" style="stroke:#181818;stroke-width:0.5;" width="256" x="28.5" y="1940.3677"/><text fill="#000000" font-family="sans-serif" font-size="12" lengthAdjust="spacing" textLength="236" x="38.5" y="1961.5063">Move gripper tool to assembly table 1</text><rect fill="#F1F1F1" height="33.9688" rx="12.5" ry="12.5" style="stroke:#181818;stroke-width:0.5;" width="291" x="11" y="1994.3364"/><text fill="#000000" font-family="sans-serif" font-size="12" lengthAdjust="spacing" textLength="271" x="21" y="2015.4751">Place nut M24 over ring and extension part</text><rect fill="#F1F1F1" height="33.9688" rx="12.5" ry="12.5" style="stroke:#181818;stroke-width:0.5;" width="202" x="55.5" y="2048.3052"/><text fill="#000000" font-family="sans-serif" font-size="12" lengthAdjust="spacing" textLength="182" x="65.5" y="2069.4438">Screw M24 on extension part</text><ellipse cx="156.5" cy="2112.2739" fill="none" rx="10" ry="10" style="stroke:#222222;stroke-width:1.5;"/><line style="stroke:#222222;stroke-width:2.5;" x1="150.3128" x2="162.6872" y1="2106.0867" y2="2118.4611"/><line style="stroke:#222222;stroke-width:2.5;" x1="162.6872" x2="150.3128" y1="2106.0867" y2="2118.4611"/><line style="stroke:#181818;stroke-width:1.0;" x1="156.5" x2="156.5" y1="30" y2="50"/><polygon fill="#181818" points="152.5,40,156.5,50,160.5,40,156.5,44" style="stroke:#181818;stroke-width:1.0;"/><line style="stroke:#181818;stroke-width:1.0;" x1="156.5" x2="156.5" y1="83.9688" y2="103.9688"/><polygon fill="#181818" points="152.5,93.9688,156.5,103.9688,160.5,93.9688,156.5,97.9688" style="stroke:#181818;stroke-width:1.0;"/><line style="stroke:#181818;stroke-width:1.0;" x1="156.5" x2="156.5" y1="181.9375" y2="255.9063"/><polygon fill="#181818" points="152.5,245.9063,156.5,255.9063,160.5,245.9063,156.5,249.9063" style="stroke:#181818;stroke-width:1.0;"/><line style="stroke:#181818;stroke-width:1.0;" x1="197.5" x2="275" y1="267.9063" y2="267.9063"/><line style="stroke:#181818;stroke-width:1.0;" x1="275" x2="275" y1="225.9063" y2="267.9063"/><polygon fill="#181818" points="271,235.9063,275,225.9063,279,235.9063,275,231.9063" style="stroke:#181818;stroke-width:1.0;"/><line style="stroke:#181818;stroke-width:1.0;" x1="275" x2="275" y1="169.9375" y2="191.9375"/><line style="stroke:#181818;stroke-width:1.0;" x1="275" x2="168.5" y1="169.9375" y2="169.9375"/><polygon fill="#181818" points="178.5,165.9375,168.5,169.9375,178.5,173.9375,174.5,169.9375" style="stroke:#181818;stroke-width:1.0;"/><line style="stroke:#181818;stroke-width:1.0;" x1="156.5" x2="156.5" y1="137.9375" y2="157.9375"/><polygon fill="#181818" points="152.5,147.9375,156.5,157.9375,160.5,147.9375,156.5,151.9375" style="stroke:#181818;stroke-width:1.0;"/><line style="stroke:#181818;stroke-width:1.0;" x1="156.5" x2="156.5" y1="279.9063" y2="321.3052"/><polygon fill="#181818" points="152.5,311.3052,156.5,321.3052,160.5,311.3052,156.5,315.3052" style="stroke:#181818;stroke-width:1.0;"/><text fill="#000000" font-family="sans-serif" font-size="11" lengthAdjust="spacing" textLength="20" x="160.5" y="301.2109">yes</text><line style="stroke:#181818;stroke-width:1.0;" x1="156.5" x2="156.5" y1="355.2739" y2="375.2739"/><polygon fill="#181818" points="152.5,365.2739,156.5,375.2739,160.5,365.2739,156.5,369.2739" style="stroke:#181818;stroke-width:1.0;"/><line style="stroke:#181818;stroke-width:1.0;" x1="156.5" x2="156.5" y1="409.2427" y2="429.2427"/><polygon fill="#181818" points="152.5,419.2427,156.5,429.2427,160.5,419.2427,156.5,423.2427" style="stroke:#181818;stroke-width:1.0;"/><line style="stroke:#181818;stroke-width:1.0;" x1="156.5" x2="156.5" y1="463.2114" y2="483.2114"/><polygon fill="#181818" points="152.5,473.2114,156.5,483.2114,160.5,473.2114,156.5,477.2114" style="stroke:#181818;stroke-width:1.0;"/><line style="stroke:#181818;stroke-width:1.0;" x1="156.5" x2="156.5" y1="517.1802" y2="537.1802"/><polygon fill="#181818" points="152.5,527.1802,156.5,537.1802,160.5,527.1802,156.5,531.1802" style="stroke:#181818;stroke-width:1.0;"/><line style="stroke:#181818;stroke-width:1.0;" x1="156.5" x2="156.5" y1="571.1489" y2="591.1489"/><polygon fill="#181818" points="152.5,581.1489,156.5,591.1489,160.5,581.1489,156.5,585.1489" style="stroke:#181818;stroke-width:1.0;"/><line style="stroke:#181818;stroke-width:1.0;" x1="156.5" x2="156.5" y1="625.1177" y2="645.1177"/><polygon fill="#181818" points="152.5,635.1177,156.5,645.1177,160.5,635.1177,156.5,639.1177" style="stroke:#181818;stroke-width:1.0;"/><line style="stroke:#181818;stroke-width:1.0;" x1="156.5" x2="156.5" y1="679.0864" y2="699.0864"/><polygon fill="#181818" points="152.5,689.0864,156.5,699.0864,160.5,689.0864,156.5,693.0864" style="stroke:#181818;stroke-width:1.0;"/><line style="stroke:#181818;stroke-width:1.0;" x1="156.5" x2="156.5" y1="733.0552" y2="753.0552"/><polygon fill="#181818" points="152.5,743.0552,156.5,753.0552,160.5,743.0552,156.5,747.0552" style="stroke:#181818;stroke-width:1.0;"/><line style="stroke:#181818;stroke-width:1.0;" x1="156.5" x2="156.5" y1="787.0239" y2="807.0239"/><polygon fill="#181818" points="152.5,797.0239,156.5,807.0239,160.5,797.0239,156.5,801.0239" style="stroke:#181818;stroke-width:1.0;"/><line style="stroke:#181818;stroke-width:1.0;" x1="156.5" x2="156.5" y1="840.9927" y2="860.9927"/><polygon fill="#181818" points="152.5,850.9927,156.5,860.9927,160.5,850.9927,156.5,854.9927" style="stroke:#181818;stroke-width:1.0;"/><line style="stroke:#181818;stroke-width:1.0;" x1="156.5" x2="156.5" y1="894.9614" y2="914.9614"/><polygon fill="#181818" points="152.5,904.9614,156.5,914.9614,160.5,904.9614,156.5,908.9614" style="stroke:#181818;stroke-width:1.0;"/><line style="stroke:#181818;stroke-width:1.0;" x1="156.5" x2="156.5" y1="948.9302" y2="968.9302"/><polygon fill="#181818" points="152.5,958.9302,156.5,968.9302,160.5,958.9302,156.5,962.9302" style="stroke:#181818;stroke-width:1.0;"/><line style="stroke:#181818;stroke-width:1.0;" x1="156.5" x2="156.5" y1="1002.8989" y2="1022.8989"/><polygon fill="#181818" points="152.5,1012.8989,156.5,1022.8989,160.5,1012.8989,156.5,1016.8989" style="stroke:#181818;stroke-width:1.0;"/><line style="stroke:#181818;stroke-width:1.0;" x1="156.5" x2="156.5" y1="1056.8677" y2="1076.8677"/><polygon fill="#181818" points="152.5,1066.8677,156.5,1076.8677,160.5,1066.8677,156.5,1070.8677" style="stroke:#181818;stroke-width:1.0;"/><line style="stroke:#181818;stroke-width:1.0;" x1="156.5" x2="156.5" y1="1110.8364" y2="1130.8364"/><polygon fill="#181818" points="152.5,1120.8364,156.5,1130.8364,160.5,1120.8364,156.5,1124.8364" style="stroke:#181818;stroke-width:1.0;"/><line style="stroke:#181818;stroke-width:1.0;" x1="156.5" x2="156.5" y1="1164.8052" y2="1184.8052"/><polygon fill="#181818" points="152.5,1174.8052,156.5,1184.8052,160.5,1174.8052,156.5,1178.8052" style="stroke:#181818;stroke-width:1.0;"/><line style="stroke:#181818;stroke-width:1.0;" x1="156.5" x2="156.5" y1="1218.7739" y2="1238.7739"/><polygon fill="#181818" points="152.5,1228.7739,156.5,1238.7739,160.5,1228.7739,156.5,1232.7739" style="stroke:#181818;stroke-width:1.0;"/><line style="stroke:#181818;stroke-width:1.0;" x1="156.5" x2="156.5" y1="1272.7427" y2="1292.7427"/><polygon fill="#181818" points="152.5,1282.7427,156.5,1292.7427,160.5,1282.7427,156.5,1286.7427" style="stroke:#181818;stroke-width:1.0;"/><line style="stroke:#181818;stroke-width:1.0;" x1="156.5" x2="156.5" y1="1326.7114" y2="1346.7114"/><polygon fill="#181818" points="152.5,1336.7114,156.5,1346.7114,160.5,1336.7114,156.5,1340.7114" style="stroke:#181818;stroke-width:1.0;"/><line style="stroke:#181818;stroke-width:1.0;" x1="156.5" x2="156.5" y1="1380.6802" y2="1400.6802"/><polygon fill="#181818" points="152.5,1390.6802,156.5,1400.6802,160.5,1390.6802,156.5,1394.6802" style="stroke:#181818;stroke-width:1.0;"/><line style="stroke:#181818;stroke-width:1.0;" x1="156.5" x2="156.5" y1="1434.6489" y2="1454.6489"/><polygon fill="#181818" points="152.5,1444.6489,156.5,1454.6489,160.5,1444.6489,156.5,1448.6489" style="stroke:#181818;stroke-width:1.0;"/><line style="stroke:#181818;stroke-width:1.0;" x1="156.5" x2="156.5" y1="1488.6177" y2="1508.6177"/><polygon fill="#181818" points="152.5,1498.6177,156.5,1508.6177,160.5,1498.6177,156.5,1502.6177" style="stroke:#181818;stroke-width:1.0;"/><line style="stroke:#181818;stroke-width:1.0;" x1="156.5" x2="156.5" y1="1542.5864" y2="1562.5864"/><polygon fill="#181818" points="152.5,1552.5864,156.5,1562.5864,160.5,1552.5864,156.5,1556.5864" style="stroke:#181818;stroke-width:1.0;"/><line style="stroke:#181818;stroke-width:1.0;" x1="156.5" x2="156.5" y1="1596.5552" y2="1616.5552"/><polygon fill="#181818" points="152.5,1606.5552,156.5,1616.5552,160.5,1606.5552,156.5,1610.5552" style="stroke:#181818;stroke-width:1.0;"/><line style="stroke:#181818;stroke-width:1.0;" x1="156.5" x2="156.5" y1="1650.5239" y2="1670.5239"/><polygon fill="#181818" points="152.5,1660.5239,156.5,1670.5239,160.5,1660.5239,156.5,1664.5239" style="stroke:#181818;stroke-width:1.0;"/><line style="stroke:#181818;stroke-width:1.0;" x1="156.5" x2="156.5" y1="1704.4927" y2="1724.4927"/><polygon fill="#181818" points="152.5,1714.4927,156.5,1724.4927,160.5,1714.4927,156.5,1718.4927" style="stroke:#181818;stroke-width:1.0;"/><line style="stroke:#181818;stroke-width:1.0;" x1="156.5" x2="156.5" y1="1758.4614" y2="1778.4614"/><polygon fill="#181818" points="152.5,1768.4614,156.5,1778.4614,160.5,1768.4614,156.5,1772.4614" style="stroke:#181818;stroke-width:1.0;"/><line style="stroke:#181818;stroke-width:1.0;" x1="156.5" x2="156.5" y1="1812.4302" y2="1832.4302"/><polygon fill="#181818" points="152.5,1822.4302,156.5,1832.4302,160.5,1822.4302,156.5,1826.4302" style="stroke:#181818;stroke-width:1.0;"/><line style="stroke:#181818;stroke-width:1.0;" x1="156.5" x2="156.5" y1="1866.3989" y2="1886.3989"/><polygon fill="#181818" points="152.5,1876.3989,156.5,1886.3989,160.5,1876.3989,156.5,1880.3989" style="stroke:#181818;stroke-width:1.0;"/><line style="stroke:#181818;stroke-width:1.0;" x1="156.5" x2="156.5" y1="1920.3677" y2="1940.3677"/><polygon fill="#181818" points="152.5,1930.3677,156.5,1940.3677,160.5,1930.3677,156.5,1934.3677" style="stroke:#181818;stroke-width:1.0;"/><line style="stroke:#181818;stroke-width:1.0;" x1="156.5" x2="156.5" y1="1974.3364" y2="1994.3364"/><polygon fill="#181818" points="152.5,1984.3364,156.5,1994.3364,160.5,1984.3364,156.5,1988.3364" style="stroke:#181818;stroke-width:1.0;"/><line style="stroke:#181818;stroke-width:1.0;" x1="156.5" x2="156.5" y1="2028.3052" y2="2048.3052"/><polygon fill="#181818" points="152.5,2038.3052,156.5,2048.3052,160.5,2038.3052,156.5,2042.3052" style="stroke:#181818;stroke-width:1.0;"/><line style="stroke:#181818;stroke-width:1.0;" x1="156.5" x2="156.5" y1="2082.2739" y2="2102.2739"/><polygon fill="#181818" points="152.5,2092.2739,156.5,2102.2739,160.5,2092.2739,156.5,2096.2739" style="stroke:#181818;stroke-width:1.0;"/><!--SRC=[dPF1ReCm38RlUGeVsyEaGRiBbRRZj0FIj3w10nwDcYKeSSVwzWkmT4o8KdRX4FltP_ysdj6n4DcBKRmJsPwnE49neEAu4uvgGXOoF3NeokoDFDiGheF4np0q1wK9Lhto_QJrqngKXvMnQt7tUAQGcUNsaw1oggx90LkhmmT2COSLGH8IdXrAC2UUoaNlwKFgCp1AtKjUDHRKQY1FjtECD3BeYybuPGquPQh5k6kYoDf4baHFdLcBCMXAy8MZvhS6X9Pl77Ox7dP15-cbYzlaaVemM2Fac_l5k1yT194RiwyCD2pg6RcD9nDJj3OEzxBlNBwWpVpIHYVrxqDgSSiyJlvuF7q9SxzBxt7NGtjgeoPwLxh4SOk2JFaD]--></g></svg>